<?xml version="1.0" encoding="UTF-8"?>
<svg id="Layer_1" data-name="Layer 1" xmlns="http://www.w3.org/2000/svg" viewBox="0 0 960 960">
  <defs>
    <style>
      .cls-1 {
        fill: #e53855;
      }

      .cls-1, .cls-2 {
        stroke-width: 0px;
      }

      .cls-2 {
        fill: #001e44;
      }
    </style>
  </defs>
  <path class="cls-2" d="M504.52,466.35c-31.59,61.3-17.69,69.78,15.16,69.78s54.97-.65,89.09-65.22c25.27-48.26,7.58-60-25.91-60s-53.71,7.17-78.98,55.44h.63ZM668.8,476.78c-44.23,87.39-114.37,89.35-159.86,89.35-87.2,0-109.31-18.26-68.24-102.39,34.75-71.74,81.51-83.48,158.59-83.48s113.73,9.13,70.13,95.87l-.63.65Z"/>
  <path class="cls-2" d="M717.45,559.61c-10.74,3.91-21.49,5.87-34.12,5.87s-21.48-1.96-29.7-5.87c-1.26,0,0-2.61,0-2.61,8.21-15.65,54.34-110.22,65.08-130.44,10.74-21.52,37.91-46.3,78.98-46.3h111.84c0,3.26-.63,6.52-1.89,9.78-2.53,7.17-6.32,15.65-11.38,20.87h-75.82c-10.11,0-28.44,4.57-41.07,29.35-11.37,22.83-50.55,102.39-58.13,117.39,0,0-1.26,1.96-3.16,2.61l-.63-.65Z"/>
  <path class="cls-2" d="M363.62,549.17l-12-8.48c34.75-18.26,42.96-37.17,56.86-63.91,43.6-87.39-1.26-95.87-70.13-95.87s-123.84,11.74-158.59,82.83c-41.07,83.48-18.96,102.39,68.24,102.39s48.65.65,48.65.65c-26.54-13.04-46.76-31.96-46.76-31.96-30.96-2.61-32.86-16.96-5.69-68.48,24.64-48.26,47.39-55.44,78.98-55.44s51.18,11.74,25.91,60c-16.43,30.65-17.69,39.13-30.96,47.61-2.52-1.3-6.95-3.91-20.85-13.04-9.47-5.87-13.9-9.13-20.85-2.61-1.89,1.96-3.16,2.61-4.42,5.22-5.69,7.83-8.84,16.96-3.16,21.52,1.26,1.3,8.21,9.13,54.97,34.57,0,0,6.95,3.91,11.37,5.87,10.11,5.22,17.06,10.43,25.9-1.96,7.58-11.09,5.69-16.96,3.16-19.57l-.63.65Z"/>
  <path class="cls-1" d="M141.84,333.96c0-19.57,15.16-35.87,34.75-35.87s34.75,15.65,34.75,35.87-15.16,35.87-34.75,35.87-34.75-15.65-34.75-35.87Z"/>
  <path class="cls-2" d="M62.86,408.96s-15.16,13.7-15.16,22.17c0,7.17,7.58,7.83,12.64,2.61,1.9-1.96,5.05-4.57,10.74-9.13,24.01-17.61,50.55-14.35,47.39,1.96-15.8,60-34.75,105-39.17,123.91-2.53,11.09-7.58,21.52,0,28.7,2.53,2.61,10.74,5.22,18.32-10.44,20.22-39.78,68.87-130.44,68.87-130.44,3.79-7.17,31.59-50.87-20.85-56.74-3.79,0-47.39-7.83-83.4,28.04l.63-.65Z"/>
  <path class="cls-2" d="M558.86,629.39c6.95-18.91,22.12-32.61,43.6-32.61s24.64,9.13,20.85,24.78h-8.21c3.16-12.39-1.26-18.26-15.16-18.26s-26.54,9.13-32.85,26.09c-6.32,17.61-2.53,26.09,13.27,26.09s24.01-7.17,29.7-19.57h8.21c-6.95,15.66-19.59,26.09-39.81,26.09s-26.54-13.7-19.59-32.61Z"/>
  <path class="cls-2" d="M668.17,660.04h-10.11l-10.11-25.43-28.44,25.43h-9.47l35.38-31.3-12.01-30.65h9.48l9.48,24.78,27.8-24.78h9.48l-34.12,30.65,12.01,31.3h.63Z"/>
  <path class="cls-2" d="M732.62,643.74c-3.79,10.43-12.64,16.96-25.91,16.96h-30.96l22.74-61.96h30.96c13.27,0,15.79,6.52,12.64,15.65-3.16,9.13-10.74,13.7-17.06,14.35,6.32.65,10.74,5.87,6.95,15.65l.63-.65ZM704.18,604.61l-7.58,20.87h20.85c8.84,0,13.9-3.91,16.43-10.43,2.53-6.52,1.26-10.43-7.58-10.43h-22.12ZM707.97,654.17c8.85,0,13.9-4.57,15.8-11.09,1.89-6.52,0-11.74-8.85-11.74h-20.85l-8.21,22.83h22.12Z"/>
  <path class="cls-2" d="M800.22,616.35c-3.79,9.78-12,18.26-26.54,18.26h-20.85l-9.47,25.43h-8.21l22.74-61.95h29.07c13.9,0,15.79,7.83,12.64,18.26h.63ZM774.95,628.09c9.48,0,14.53-4.57,17.06-11.74,2.52-7.17,1.26-11.74-8.21-11.74h-19.59l-8.85,23.48h19.59Z"/>
  <path class="cls-2" d="M802.12,629.39c6.95-18.26,21.48-32.61,43.6-32.61s26.54,14.35,19.59,32.61c-6.95,18.91-21.48,32.61-43.6,32.61s-26.54-13.7-19.59-32.61ZM823.6,655.48c16.43,0,26.54-8.48,32.86-26.09,6.32-17.61,2.53-26.09-13.27-26.09s-26.54,8.48-32.85,26.09c-6.32,17.61-2.53,26.09,13.27,26.09Z"/>
  <path class="cls-2" d="M889.31,598.09v1.96h-6.32v16.3h-1.9v-16.3h-6.32v-1.96h15.16-.63Z"/>
  <path class="cls-2" d="M910.8,616.35h-1.9v-16.3l-5.69,16.3h-3.16l-5.69-16.3v16.3h-1.89v-18.26h3.79l5.69,16.3,5.69-16.3h3.79v18.26h-.63Z"/>
</svg>